<svg width="81" height="70" viewBox="0 0 81 70" fill="none" xmlns="http://www.w3.org/2000/svg">
<path d="M74.4468 29.4583C74.3235 25.6346 73.9102 23.1962 72.5102 21.1167C70.5168 18.1562 66.9302 16.5083 59.7602 13.2183L53.0935 10.1558C47.2402 7.46958 44.3135 6.125 41.1668 6.125C38.0202 6.125 35.0935 7.46667 29.2402 10.1558L22.5735 13.2183C15.4035 16.5083 11.8168 18.1562 9.8235 21.1167C7.8335 24.0742 7.8335 27.7579 7.8335 35.1167V35.4579C7.8335 42.8225 7.8335 46.5062 9.8235 49.4637C11.8168 52.4242 15.4035 54.0721 22.5735 57.365L29.2402 60.4246C35.0935 63.1138 38.0202 64.4583 41.1668 64.4583C44.3135 64.4583 47.2402 63.1167 53.0935 60.4275L59.7602 57.365C66.9302 54.0721 70.5168 52.4271 72.5102 49.4667C73.9102 47.3871 74.3235 44.9488 74.4468 41.125M71.1668 22.1667L57.8335 28M57.8335 28L56.1668 28.7292L41.1668 35.2917M57.8335 28V38.2083M57.8335 28L26.1668 13.4167M41.1668 35.2917L11.1668 22.1667M41.1668 35.2917V63" stroke="#252525" stroke-width="2" stroke-linecap="round"/>
</svg>
