<svg width="81" height="70" viewBox="0 0 81 70" fill="none" xmlns="http://www.w3.org/2000/svg">
<path d="M46.5762 63.0775H33.2428C20.6728 63.0775 14.3862 63.0775 10.4828 59.6592C6.57617 56.2438 6.57617 50.743 6.57617 39.7442V33.9109C6.57617 22.9121 6.57617 17.4113 10.4828 13.9959C14.3862 10.5775 20.6728 10.5775 33.2428 10.5775H46.5762C59.1462 10.5775 65.4328 10.5775 69.3362 13.9959C73.2428 17.4113 73.2428 22.9121 73.2428 33.9109V39.7442C73.2428 50.743 73.2428 56.2438 69.3362 59.6592C67.1595 61.5667 64.2428 62.4096 59.9095 62.78M23.2428 10.5775V6.20255M56.5762 10.5775V6.20255M71.5762 25.1609H35.7428M6.57617 25.1609H19.4928" stroke="#252525" stroke-width="2" stroke-linecap="round"/>
<path d="M59.9097 48.4942C59.9097 49.2678 59.5585 50.0096 58.9334 50.5566C58.3082 51.1036 57.4604 51.4109 56.5763 51.4109C55.6923 51.4109 54.8444 51.1036 54.2193 50.5566C53.5942 50.0096 53.243 49.2678 53.243 48.4942C53.243 47.7207 53.5942 46.9788 54.2193 46.4318C54.8444 45.8848 55.6923 45.5776 56.5763 45.5776C57.4604 45.5776 58.3082 45.8848 58.9334 46.4318C59.5585 46.9788 59.9097 47.7207 59.9097 48.4942ZM59.9097 36.8276C59.9097 37.6011 59.5585 38.343 58.9334 38.8899C58.3082 39.4369 57.4604 39.7442 56.5763 39.7442C55.6923 39.7442 54.8444 39.4369 54.2193 38.8899C53.5942 38.343 53.243 37.6011 53.243 36.8276C53.243 36.054 53.5942 35.3121 54.2193 34.7652C54.8444 34.2182 55.6923 33.9109 56.5763 33.9109C57.4604 33.9109 58.3082 34.2182 58.9334 34.7652C59.5585 35.3121 59.9097 36.054 59.9097 36.8276ZM43.243 48.4942C43.243 49.2678 42.8918 50.0096 42.2667 50.5566C41.6416 51.1036 40.7937 51.4109 39.9097 51.4109C39.0256 51.4109 38.1778 51.1036 37.5526 50.5566C36.9275 50.0096 36.5763 49.2678 36.5763 48.4942C36.5763 47.7207 36.9275 46.9788 37.5526 46.4318C38.1778 45.8848 39.0256 45.5776 39.9097 45.5776C40.7937 45.5776 41.6416 45.8848 42.2667 46.4318C42.8918 46.9788 43.243 47.7207 43.243 48.4942ZM43.243 36.8276C43.243 37.6011 42.8918 38.343 42.2667 38.8899C41.6416 39.4369 40.7937 39.7442 39.9097 39.7442C39.0256 39.7442 38.1778 39.4369 37.5526 38.8899C36.9275 38.343 36.5763 37.6011 36.5763 36.8276C36.5763 36.054 36.9275 35.3121 37.5526 34.7652C38.1778 34.2182 39.0256 33.9109 39.9097 33.9109C40.7937 33.9109 41.6416 34.2182 42.2667 34.7652C42.8918 35.3121 43.243 36.054 43.243 36.8276ZM26.5763 48.4942C26.5763 49.2678 26.2251 50.0096 25.6 50.5566C24.9749 51.1036 24.1271 51.4109 23.243 51.4109C22.3589 51.4109 21.5111 51.1036 20.886 50.5566C20.2609 50.0096 19.9097 49.2678 19.9097 48.4942C19.9097 47.7207 20.2609 46.9788 20.886 46.4318C21.5111 45.8848 22.3589 45.5776 23.243 45.5776C24.1271 45.5776 24.9749 45.8848 25.6 46.4318C26.2251 46.9788 26.5763 47.7207 26.5763 48.4942ZM26.5763 36.8276C26.5763 37.6011 26.2251 38.343 25.6 38.8899C24.9749 39.4369 24.1271 39.7442 23.243 39.7442C22.3589 39.7442 21.5111 39.4369 20.886 38.8899C20.2609 38.343 19.9097 37.6011 19.9097 36.8276C19.9097 36.054 20.2609 35.3121 20.886 34.7652C21.5111 34.2182 22.3589 33.9109 23.243 33.9109C24.1271 33.9109 24.9749 34.2182 25.6 34.7652C26.2251 35.3121 26.5763 36.054 26.5763 36.8276Z" fill="#252525"/>
</svg>
