<svg width="32" height="36" viewBox="0 0 32 36" fill="none" xmlns="http://www.w3.org/2000/svg">
<path d="M2.38931 15.2016L0.522113 32.0016L2.90771 32.268L4.77491 15.4656L2.38931 15.2016ZM4.10051 36H27.5389V33.6H4.10051V36ZM31.1173 32.0016L29.2501 15.2016L26.8645 15.4656L28.7317 32.268L31.1173 32.0016ZM25.6693 12H5.97011V14.4H25.6741V12H25.6693ZM29.2501 15.2016C29.1521 14.3212 28.7328 13.5078 28.0726 12.9171C27.4124 12.3264 26.5552 11.9999 25.6693 12L25.6717 14.4C25.9671 14.4 26.2522 14.5089 26.4723 14.706C26.6924 14.9031 26.832 15.1744 26.8645 15.468L29.2501 15.2016ZM27.5389 36C28.0451 35.9997 28.5456 35.8927 29.0076 35.6859C29.4697 35.4791 29.8829 35.1772 30.2204 34.7999C30.5579 34.4226 30.812 33.9783 30.9661 33.4961C31.1202 33.014 31.1733 32.5047 31.1173 32.0016L28.7317 32.268C28.7506 32.4359 28.7339 32.6035 28.6826 32.7645C28.6313 32.9254 28.5465 33.0738 28.4339 33.1997C28.3213 33.3257 28.1834 33.4265 28.0292 33.4954C27.8749 33.5644 27.7079 33.6001 27.5389 33.6V36ZM0.522113 32.0016C0.46607 32.5049 0.516845 33.0144 0.671121 33.4967C0.825398 33.9791 1.0797 34.4234 1.41743 34.8008C1.75515 35.1782 2.16869 35.48 2.63103 35.6867C3.09336 35.8933 3.5941 36.0001 4.10051 36V33.6C3.93178 33.6 3.76495 33.5644 3.6109 33.4956C3.45684 33.4268 3.31904 33.3262 3.20648 33.2005C3.09392 33.0748 3.00913 32.9268 2.95765 32.7661C2.90617 32.6054 2.88915 32.4357 2.90771 32.268L0.522113 32.004V32.0016ZM4.77491 15.4656C4.80796 15.1724 4.94786 14.9017 5.16789 14.7051C5.38793 14.5085 5.67506 14.3999 5.97011 14.4V12C5.08464 12.0005 4.228 12.3272 3.5683 12.9179C2.90859 13.5085 2.48731 14.3216 2.38931 15.2016L4.77491 15.4656ZM9.81971 9.6V8.4H7.41971V9.6H9.81971ZM21.8197 8.4V9.6H24.2197V8.4H21.8197ZM15.8197 2.4C17.411 2.4 18.9371 3.03214 20.0624 4.15736C21.1876 5.28258 21.8197 6.8087 21.8197 8.4H24.2197C24.2197 6.17218 23.3347 4.03561 21.7594 2.4603C20.1841 0.884997 18.0475 0 15.8197 0V2.4ZM9.81971 8.4C9.81971 6.8087 10.4519 5.28258 11.5771 4.15736C12.7023 3.03214 14.2284 2.4 15.8197 2.4V0C13.5919 0 11.4553 0.884997 9.88002 2.4603C8.30471 4.03561 7.41971 6.17218 7.41971 8.4H9.81971Z" fill="#252525"/>
</svg>
