<svg width="81" height="70" viewBox="0 0 81 70" fill="none" xmlns="http://www.w3.org/2000/svg">
<path d="M64.8421 18.6764C62.9794 12.6544 62.0464 9.64343 59.619 8.36345C57.1848 7.0803 54.204 8.03206 48.2425 9.93211L41.9184 11.942C35.9566 13.8386 32.9759 14.7903 31.7046 17.2519C30.4299 19.7101 31.3595 22.7212 33.222 28.7397L35.1997 35.1286C37.0622 41.1471 37.9918 44.1582 40.4226 45.438C42.8535 46.7213 45.8342 45.7696 51.7959 43.873L58.1198 41.8562C64.0815 39.9596 67.0623 39.0113 68.3371 36.5531C69.0362 35.2013 69.0713 33.6842 68.6495 31.5927" stroke="#252525" stroke-width="2" stroke-linecap="round"/>
<path d="M34.1632 55.3803C32.9304 62.0877 26.7336 66.421 20.3855 65.1544C14.0374 63.8878 9.81553 57.4756 11.0483 50.7683C12.2811 44.0609 18.478 39.7276 24.8261 40.9942C31.1742 42.2608 35.396 48.673 34.1632 55.3803Z" stroke="#252525" stroke-width="2"/>
<path d="M39.6665 58.1867L71.2902 50.0118" stroke="#252525" stroke-width="2" stroke-linecap="round"/>
<path d="M29.4283 42.7184L22.4122 19.5198C20.4769 13.684 14.674 13.8885 12.0144 14.7203" stroke="#252525" stroke-width="2" stroke-linecap="round"/>
</svg>
