<svg width="9" height="16" viewBox="0 0 9 16" fill="none" xmlns="http://www.w3.org/2000/svg">
<path d="M4.85355 0.146447C4.65829 -0.0488155 4.34171 -0.0488156 4.14645 0.146447L0.964466 3.32843C0.769204 3.52369 0.769204 3.84027 0.964466 4.03553C1.15973 4.2308 1.47631 4.2308 1.67157 4.03553L4.5 1.20711L7.32843 4.03553C7.52369 4.2308 7.84027 4.2308 8.03553 4.03553C8.2308 3.84027 8.2308 3.52369 8.03553 3.32843L4.85355 0.146447ZM4.14645 15.8536C4.34171 16.0488 4.65829 16.0488 4.85355 15.8536L8.03553 12.6716C8.2308 12.4763 8.2308 12.1597 8.03553 11.9645C7.84027 11.7692 7.52369 11.7692 7.32843 11.9645L4.5 14.7929L1.67157 11.9645C1.47631 11.7692 1.15973 11.7692 0.964466 11.9645C0.769203 12.1597 0.769203 12.4763 0.964466 12.6716L4.14645 15.8536ZM4 0.5L4 15.5L5 15.5L5 0.5L4 0.5Z" fill="#252525"/>
</svg>
