<svg width="12" height="12" viewBox="0 0 12 12" fill="none" xmlns="http://www.w3.org/2000/svg">
<path d="M11.8535 0.751462C11.8561 0.475332 11.6343 0.249381 11.3582 0.246787L6.85841 0.204516C6.58228 0.201922 6.35633 0.423667 6.35374 0.699797C6.35114 0.975928 6.57289 1.20188 6.84902 1.20447L10.8488 1.24205L10.8113 5.24187C10.8087 5.518 11.0304 5.74395 11.3065 5.74654C11.5827 5.74914 11.8086 5.52739 11.8112 5.25126L11.8535 0.751462ZM0.147769 11.2486C0.145175 11.5247 0.36692 11.7506 0.64305 11.7532L5.14285 11.7955C5.41898 11.7981 5.64493 11.5764 5.64753 11.3002C5.65012 11.0241 5.42838 10.7982 5.15225 10.7956L1.15242 10.758L1.19 6.75816C1.19259 6.48203 0.970845 6.25608 0.694715 6.25349C0.418585 6.25089 0.192634 6.47264 0.190041 6.74877L0.147769 11.2486ZM11.0033 0.389906L0.297531 10.8964L0.997964 11.6101L11.7037 1.10362L11.0033 0.389906Z" fill="#252525"/>
</svg>
