<svg width="80" height="70" viewBox="0 0 80 70" fill="none" xmlns="http://www.w3.org/2000/svg">
<path d="M51.1341 45.1788C53.0841 43.4667 53.3474 40.9292 51.7208 39.5029C50.0941 38.0796 47.1908 38.31 45.2374 40.0192C43.2874 41.7283 40.3841 41.9588 38.7574 40.5354C37.1308 39.1121 37.3941 36.5717 39.3474 34.8654M39.3474 34.8654L38.1674 33.8329M39.3474 34.8654C40.4508 33.8971 41.8574 33.4071 43.1674 33.4158M52.3108 46.2083L51.1308 45.1758C49.7974 46.3454 48.0141 46.8238 46.5008 46.5496M28.5241 32.0217C29.8426 32.0217 31.1316 31.6796 32.2279 31.0386C33.3242 30.3976 34.1787 29.4866 34.6833 28.4207C35.1879 27.3548 35.3199 26.1819 35.0627 25.0503C34.8054 23.9188 34.1705 22.8794 33.2381 22.0636C32.3058 21.2478 31.1179 20.6922 29.8247 20.4671C28.5315 20.242 27.191 20.3575 25.9729 20.799C24.7547 21.2406 23.7135 21.9882 22.981 22.9475C22.2484 23.9068 21.8574 25.0346 21.8574 26.1883" stroke="#252525" stroke-width="2" stroke-linecap="round"/>
<path d="M53.6241 14.0813C48.4708 9.57503 45.8975 7.32044 42.5542 6.48336C39.2108 5.64336 35.6608 6.36086 28.5642 7.79586L24.4708 8.62128C18.4975 9.82586 15.5108 10.4296 13.4642 12.2175C11.4208 14.0084 10.7308 16.6217 9.35415 21.8484L8.40748 25.43C6.77082 31.6425 5.95082 34.7459 6.90748 37.6713C7.86748 40.5967 10.4442 42.8484 15.5942 47.3546L21.6942 52.6921C30.6608 60.5409 35.1408 64.4579 40.7075 64.4579C46.2775 64.4579 50.7575 60.535 59.7208 52.6921C68.6908 44.8492 73.1675 40.9292 73.1675 36.0554C73.1675 32.1413 70.2742 28.8396 64.4875 23.6246" stroke="#252525" stroke-width="2" stroke-linecap="round"/>
</svg>
