<svg width="16" height="8" viewBox="0 0 16 8" fill="none" xmlns="http://www.w3.org/2000/svg">
<path d="M0.146447 3.64645C-0.0488155 3.84171 -0.0488155 4.15829 0.146447 4.35355L3.32843 7.53553C3.52369 7.7308 3.84027 7.7308 4.03553 7.53553C4.2308 7.34027 4.2308 7.02369 4.03553 6.82843L1.20711 4L4.03553 1.17157C4.2308 0.976311 4.2308 0.659728 4.03553 0.464466C3.84027 0.269204 3.52369 0.269204 3.32843 0.464466L0.146447 3.64645ZM15.8536 4.35355C16.0488 4.15829 16.0488 3.84171 15.8536 3.64645L12.6716 0.464466C12.4763 0.269204 12.1597 0.269204 11.9645 0.464466C11.7692 0.659728 11.7692 0.976311 11.9645 1.17157L14.7929 4L11.9645 6.82843C11.7692 7.02369 11.7692 7.34027 11.9645 7.53553C12.1597 7.7308 12.4763 7.7308 12.6716 7.53553L15.8536 4.35355ZM0.5 4.5L15.5 4.5V3.5L0.5 3.5L0.5 4.5Z" fill="#252525"/>
</svg>
